# xmcd CD database file
#
# Track frame offsets:
#	150
#	28562
#	45575
#
# Disc length: 859 seconds
#
# Revision: 1
# Processed by: cddbd v1.5.1PL2 Copyright (c) Steve Scherf et al.
# Submitted via: CDex 1.51
#
DISCID=1a035903
DTITLE=Warlus - 逆光
DYEAR=1999
DGENRE=Rock
TTITLE0=逆光
TTITLE1=水銀
TTITLE2=Moth (Remixed By EYE)
EXTD=YEAR: 1999
EXTT0=
EXTT1=
EXTT2=
PLAYORDER=
